<svg version="1.1" id="Layer_1" xmlns="http://www.w3.org/2000/svg" xmlns:xlink="http://www.w3.org/1999/xlink" x="0px" y="0px"
	 width="100%" viewBox="0 0 512 512" enable-background="new 0 0 512 512" xml:space="preserve">
<path fill="#000000" opacity="1.000000" stroke="none" 
	d="
M370.796997,377.381378 
	C372.703461,382.036255 374.864685,386.226776 375.221405,390.964447 
	C375.370117,392.939850 375.544342,395.271667 373.203003,396.100342 
	C371.168457,396.820404 370.496185,394.655792 369.388306,393.522217 
	C347.514862,371.141418 326.757965,347.679535 302.268829,327.883240 
	C294.398254,321.520905 286.732361,320.228729 277.530365,321.490723 
	C269.625610,322.574860 261.663055,323.419159 253.663742,323.275421 
	C249.701462,323.204224 248.397980,323.935516 248.832657,328.663757 
	C250.466522,346.436584 255.710114,363.144745 261.964722,379.689392 
	C266.387604,391.388763 268.305908,403.788818 271.160339,415.919556 
	C271.679230,418.124695 271.557892,420.499695 270.870483,422.649017 
	C267.942261,423.302399 267.482758,421.122589 266.660492,419.673126 
	C254.623001,398.454285 240.856125,378.489502 224.686783,360.157318 
	C219.529144,354.309814 215.148209,347.735657 210.796921,341.236237 
	C208.676544,338.069122 206.833527,337.716461 203.470993,339.275726 
	C186.099182,347.331451 168.617722,355.137268 150.591156,361.672852 
	C142.790054,364.501190 134.364120,365.528564 127.096764,369.916351 
	C125.819901,370.687225 124.161713,370.810211 122.907928,369.574158 
	C121.578865,368.263916 121.465736,366.567505 122.002663,364.914673 
	C122.957253,361.976013 125.034340,359.776062 127.176132,357.659424 
	C137.129425,347.823029 147.011398,337.912598 157.073013,328.188080 
	C172.683731,313.100342 186.383072,296.314514 200.365997,279.780853 
	C201.945282,277.913483 204.787292,276.051483 202.586151,272.929657 
	C200.349823,269.757843 198.763123,266.069672 193.577942,266.280365 
	C179.332794,266.859131 165.565125,269.996185 151.883652,273.542877 
	C135.930710,277.678467 120.222076,282.656464 104.751152,288.360168 
	C103.113449,288.963959 101.339973,290.504761 99.730820,288.709747 
	C98.130531,286.924652 98.533287,284.648560 99.207085,282.537689 
	C99.797859,280.686920 101.397179,279.653625 102.807404,278.492981 
	C115.695770,267.885803 129.515961,258.585785 143.575424,249.640778 
	C150.894073,244.984497 158.066803,240.124237 164.897873,234.797440 
	C174.951813,226.957474 186.325378,221.351913 197.560364,215.601059 
	C201.510757,213.578979 202.258667,210.752838 202.536728,207.318024 
	C203.998932,189.255295 205.173279,171.168472 206.730667,153.114456 
	C208.373322,134.071548 210.575058,115.075447 210.982635,95.939056 
	C211.019180,94.223206 211.097382,92.249237 213.184052,91.014297 
	C215.782257,92.383400 215.857025,95.106674 216.204636,97.379303 
	C220.046753,122.499214 226.636200,147.109848 230.015289,172.315063 
	C231.272141,181.690140 232.806259,191.027847 234.169586,200.389053 
	C234.424423,202.138855 234.705444,203.639908 236.919601,203.886826 
	C249.587830,205.299454 262.342773,205.818436 275.106934,208.427277 
	C278.196381,189.931061 278.961426,172.029572 278.871765,153.194946 
	C283.364502,155.652634 283.011078,158.824692 283.089081,161.339523 
	C283.380249,170.720047 285.212830,179.898209 287.619293,188.818176 
	C288.943207,193.725418 290.258942,198.505096 290.687958,203.562332 
	C291.004974,207.299164 292.910309,208.843475 296.933105,208.786697 
	C303.396027,208.695450 309.921906,208.003723 316.346375,209.575638 
	C319.024261,210.230850 321.679413,210.828995 322.208954,214.083511 
	C322.778900,217.586548 322.207001,220.609055 318.771881,222.692276 
	C313.361389,225.973450 308.183472,229.642303 302.734802,232.854782 
	C299.764435,234.606079 298.953735,236.442017 300.164032,239.781097 
	C302.656647,246.657806 304.926117,253.628510 306.937317,260.660675 
	C307.857239,263.877136 309.546967,265.049347 312.682007,264.656281 
	C314.166626,264.470093 315.660706,264.351562 317.153107,264.236328 
	C325.542053,263.588684 327.567535,266.066223 324.934875,274.356110 
	C334.104706,273.320190 343.097473,272.337250 352.081146,271.277557 
	C357.858826,270.596039 363.606659,269.472687 369.450287,269.699524 
	C385.453979,270.320831 401.394287,268.221191 417.391144,268.663727 
	C419.555603,268.723602 421.685486,268.786926 423.813416,269.402954 
	C426.593719,270.207886 428.140869,271.886688 428.116516,274.751312 
	C428.094269,277.373474 426.637939,278.717468 424.112640,279.736053 
	C395.056274,291.456421 365.212708,300.702820 334.895233,308.496216 
	C334.288971,308.652069 333.744141,309.046936 332.757111,309.534607 
	C345.049805,332.395721 360.923737,353.010468 370.796997,377.381378 
M269.544403,261.178436 
	C269.732422,258.473450 269.920410,255.768478 270.142609,252.571243 
	C261.042694,256.513428 252.521744,260.194733 244.011719,263.901154 
	C242.555344,264.535431 241.427414,265.421997 241.849503,267.317413 
	C242.630447,270.824371 241.999130,274.628784 244.219086,278.265930 
	C248.485001,277.138153 252.734741,275.438141 257.114044,274.981964 
	C265.196350,274.140076 270.027222,270.846130 269.544403,261.178436 
z"/>
</svg>