<svg version="1.1" id="Layer_1" xmlns="http://www.w3.org/2000/svg" xmlns:xlink="http://www.w3.org/1999/xlink" x="0px" y="0px"
	 width="100%" viewBox="0 0 1024 1024" enable-background="new 0 0 1024 1024" xml:space="preserve">
<path fill="#000000" opacity="1.000000" stroke="none" 
	d="
M336.493103,845.749268 
	C317.415405,850.070923 299.736176,847.174683 282.848022,838.476074 
	C278.998413,836.493164 275.165985,834.428772 271.164764,832.796204 
	C244.783279,822.031982 230.028351,801.243774 223.929413,774.659119 
	C212.836960,726.308350 227.240479,685.040039 261.820770,650.287109 
	C269.775787,642.292419 279.151703,636.279968 289.328461,631.477600 
	C290.638031,630.859619 292.256104,630.607910 292.953827,628.846680 
	C292.296295,626.794006 290.257355,626.772461 288.630676,626.233948 
	C278.357300,622.833313 268.093811,619.398376 257.768097,616.162781 
	C253.894913,614.949158 252.058456,612.733765 251.926270,608.607971 
	C251.254181,587.632874 251.349884,566.577698 249.413956,545.714111 
	C247.451645,524.566345 254.536087,505.305237 259.171356,485.523743 
	C272.829681,427.235321 286.894470,369.041901 300.879944,310.830475 
	C304.375916,296.279266 308.241241,281.817108 311.801819,267.280975 
	C313.607758,259.908203 317.506134,255.370102 325.184631,252.856491 
	C389.743256,231.722931 454.178192,210.211563 518.650085,188.813004 
	C520.548828,188.182785 522.440002,187.672455 524.489624,187.635269 
	C558.801270,187.012665 593.114563,186.441010 627.420715,185.586624 
	C632.699951,185.455124 635.666748,187.048569 636.491882,192.312805 
	C636.722473,193.783661 637.059021,195.272446 637.600464,196.653625 
	C639.312866,201.022217 637.949951,203.868027 633.405029,204.800201 
	C628.344421,205.838104 627.224426,208.783997 627.216370,213.702362 
	C627.184631,233.023560 626.764648,252.347000 626.228882,271.662384 
	C626.099976,276.310547 627.148071,278.316833 632.280273,277.804749 
	C667.912354,274.249451 703.428101,278.778564 738.998474,279.625244 
	C756.310364,280.037262 773.613770,280.859192 790.915283,281.623627 
	C798.924683,281.977509 804.258240,287.568817 804.145386,295.890625 
	C803.960083,309.546539 803.739990,323.220490 802.856384,336.842865 
	C802.068848,348.984161 802.059998,361.140167 801.521912,373.282043 
	C799.981140,408.051727 799.304504,442.858856 798.002930,477.640594 
	C797.704041,485.628723 797.352905,493.612030 797.240173,501.606140 
	C797.136780,508.933502 794.576965,512.308472 787.588806,514.097656 
	C772.920044,517.853271 758.232300,521.534790 743.545166,525.218201 
	C741.301941,525.780762 739.023987,526.199280 737.161072,527.747253 
	C740.067078,530.912598 741.393005,544.210693 739.291687,548.015625 
	C738.148926,550.084717 736.067200,550.150879 734.157349,550.603760 
	C712.302673,555.787109 690.444458,560.955688 668.593567,566.155090 
	C666.855530,566.568604 665.164673,567.180298 662.754150,567.911621 
	C667.150574,571.557312 671.963440,573.061340 675.813232,576.138306 
	C690.785339,588.104980 698.832703,604.086121 702.090942,622.474182 
	C709.002014,661.476868 700.337036,696.925415 675.964233,728.188782 
	C665.193604,742.004272 651.730774,752.433960 634.188538,756.546082 
	C624.598389,758.794128 615.095703,758.906982 605.670776,755.543823 
	C599.872498,753.474792 594.058594,751.379028 588.119934,749.786743 
	C568.917236,744.638000 557.258057,731.562744 549.927368,713.898804 
	C546.860291,706.508423 546.991333,706.432312 539.514160,709.211914 
	C533.894592,711.301025 528.314270,713.496460 522.681458,715.548523 
	C519.097229,716.854248 517.561035,718.835449 519.217285,722.761108 
	C520.701904,726.280029 521.731323,729.989624 522.994751,733.603577 
	C523.839417,736.019714 524.567261,738.340576 522.384216,740.549377 
	C521.205322,741.742249 521.593079,743.282349 521.924072,744.803955 
	C522.877991,749.188416 523.583191,753.630127 524.637756,757.988464 
	C525.185364,760.251526 525.427734,762.175049 523.488342,763.909607 
	C521.370911,765.803467 521.970886,768.338684 522.717896,770.448425 
	C523.742188,773.341370 523.135681,775.048218 520.530212,776.657837 
	C511.460938,782.260498 502.491425,788.025330 493.513275,793.774292 
	C491.721283,794.921692 490.029541,795.408203 487.893768,794.606506 
	C477.609344,790.745667 467.288940,786.985413 457.238983,782.525269 
	C455.000153,781.531616 454.220337,779.932861 453.672577,777.603699 
	C452.010712,770.537109 453.226288,764.652405 458.993256,759.748657 
	C461.491760,757.624207 463.102081,754.486938 465.452057,752.147461 
	C468.029938,749.580994 468.660828,747.192749 466.995789,743.764282 
	C465.417816,740.515076 463.402832,739.839172 460.163544,740.768188 
	C459.185791,741.048523 457.881561,740.494080 456.810516,740.096619 
	C449.941132,737.547668 443.075592,734.985962 436.247192,732.329773 
	C430.344910,730.033875 426.887146,720.525208 429.926086,714.897705 
	C432.141693,710.794922 434.462921,706.742615 436.904510,702.770691 
	C438.386932,700.359192 438.491028,698.536804 436.539001,696.113098 
	C430.483063,688.593811 424.749542,680.814819 418.545837,673.278992 
	C420.668701,681.469421 423.941345,689.286865 425.378540,697.632385 
	C430.102722,725.065063 426.152039,751.366211 414.881165,776.612427 
	C402.506714,804.330566 383.308899,825.767456 355.790314,839.248230 
	C349.788147,842.188599 343.426971,844.185181 336.493103,845.749268 
M382.609924,725.072876 
	C383.492615,705.028748 380.195221,686.334473 365.834717,670.400208 
	C364.013153,672.806213 363.583069,674.536133 363.210144,676.346252 
	C359.485840,694.422424 355.821442,712.511902 351.924561,730.551147 
	C349.139709,743.442566 348.992950,743.410950 335.614014,741.798706 
	C327.222137,740.787415 325.197876,738.720886 324.772644,730.400574 
	C321.614258,729.709106 318.303650,729.107483 315.033447,729.577148 
	C311.173889,730.131470 307.841095,728.979065 304.409180,727.587952 
	C301.627594,726.460388 300.760559,724.894348 301.340088,721.801392 
	C303.482666,710.366394 305.499664,698.900940 307.204773,687.393738 
	C308.041077,681.749878 310.052643,676.200989 309.580719,670.276917 
	C306.651367,670.154785 305.226135,671.978882 303.659851,673.341248 
	C276.111450,697.302673 263.952942,727.427246 268.448242,763.733948 
	C270.568207,780.855774 278.232025,795.399902 291.898407,806.444702 
	C294.759064,808.756714 297.809875,809.783569 301.526276,809.784119 
	C325.478546,809.787598 343.907227,798.643799 359.148590,781.250854 
	C372.998932,765.445374 380.063324,746.661316 382.609924,725.072876 
M628.532715,718.054504 
	C634.708130,713.733704 640.313354,708.787781 644.950500,702.820190 
	C657.182556,687.078491 663.676758,669.102722 664.541748,649.313721 
	C665.174255,634.843750 663.033142,620.714355 655.157166,608.067566 
	C653.756836,605.819092 652.504150,603.082397 649.267700,602.906250 
	C647.780334,605.062744 648.287781,607.123962 648.284668,609.061218 
	C648.256897,626.548035 648.157410,644.036865 648.407410,661.520447 
	C648.470947,665.957214 646.867920,667.952881 642.776917,669.452393 
	C625.433655,675.809570 608.250610,682.602478 590.937866,689.044922 
	C586.640137,690.644348 585.261719,693.099976 586.561523,697.444885 
	C589.546082,707.421387 594.622620,716.002197 602.654236,722.779724 
	C605.266785,724.984314 607.864502,725.690186 611.349182,725.069275 
	C617.392273,723.992371 622.771729,721.583313 628.532715,718.054504 
M558.985168,284.384735 
	C568.250732,283.485840 577.503113,282.388123 586.787598,281.776367 
	C591.095703,281.492493 592.714233,280.074951 593.073059,275.534729 
	C594.438721,258.251953 592.738342,240.905243 594.443726,223.645569 
	C594.574158,222.325943 594.268860,220.988724 593.004578,219.847382 
	C592.511047,219.875519 591.821228,219.766281 591.240723,219.969482 
	C572.243225,226.619446 553.262512,233.317078 534.261902,239.958160 
	C531.002258,241.097488 530.285461,243.425491 530.308105,246.584015 
	C530.391602,258.237885 530.513306,269.898926 530.180786,281.544739 
	C530.040527,286.454529 532.237671,287.048676 536.226318,286.598358 
	C543.494385,285.777832 550.790466,285.206512 558.985168,284.384735 
M547.045227,629.732300 
	C553.894409,607.763062 566.560730,589.677734 584.552002,575.149902 
	C577.693787,570.549561 576.031494,570.664673 571.857788,575.401062 
	C570.820374,576.578308 569.399353,577.039856 567.879089,577.252625 
	C562.946960,577.942627 558.028381,578.752380 553.080688,579.299255 
	C550.458252,579.589172 548.415649,580.386230 546.708374,582.574036 
	C540.468384,590.570618 534.212097,598.564575 527.656860,606.300964 
	C524.166321,610.420410 522.105469,614.682251 522.134277,620.218384 
	C522.157471,624.665833 521.194641,629.116943 520.691406,633.568848 
	C519.162048,647.098816 517.552429,660.620789 516.171387,674.165955 
	C515.711121,678.679993 517.187256,679.655151 521.389709,677.989197 
	C526.180359,676.089905 530.856934,673.901917 535.654846,672.022217 
	C538.444214,670.929443 539.841797,669.241333 540.055969,666.142151 
	C540.894714,654.004211 543.070862,642.097595 547.045227,629.732300 
M440.693176,296.055481 
	C449.866028,290.472137 459.707062,287.249847 470.558075,287.874115 
	C477.862152,288.294342 485.175110,288.724792 492.444855,289.512848 
	C496.690613,289.973114 499.374939,289.047913 499.419037,284.321899 
	C499.502899,275.334045 499.599457,266.344757 499.516998,257.357666 
	C499.485840,253.965164 497.761139,252.558197 494.246643,253.791534 
	C475.096527,260.511871 455.920044,267.157043 436.771606,273.882050 
	C434.935181,274.526978 432.583740,275.096954 432.457153,277.513336 
	C432.052582,285.235382 431.770172,292.972015 432.320923,301.072845 
	C435.884399,300.188110 437.587067,297.651917 440.693176,296.055481 
M441.853149,535.576538 
	C428.651917,531.290649 428.366791,531.450745 428.445099,545.507324 
	C428.463379,548.780457 427.351288,552.424377 430.574219,555.655579 
	C435.056366,551.394409 439.567322,547.498657 443.572266,543.138245 
	C445.683777,540.839294 445.498566,537.941345 441.853149,535.576538 
M439.853241,497.299683 
	C444.751984,494.878632 443.762177,490.481232 443.257446,486.448181 
	C443.014648,484.508362 441.430054,483.939453 439.445465,484.738007 
	C430.691650,488.260254 427.875885,493.558899 430.016602,502.649933 
	C435.494080,502.527252 436.798523,501.845123 439.853241,497.299683 
M620.275818,604.872925 
	C620.494019,618.802917 619.645691,632.788940 622.214966,646.657776 
	C622.977783,646.139587 623.480713,645.583435 623.483704,645.024536 
	C623.561279,630.726685 623.603943,616.428528 623.594543,602.130432 
	C623.593567,600.669556 623.424072,599.039795 621.220764,599.223633 
	C619.817322,600.648499 620.488831,602.407776 620.275818,604.872925 
M596.690491,635.512939 
	C596.266235,632.389893 597.611572,629.027283 595.129272,625.175659 
	C590.796387,631.635681 588.301453,638.172302 586.643860,645.000793 
	C586.050964,647.443054 588.098816,647.949890 590.212830,647.597473 
	C595.646362,646.691772 596.678162,644.925659 596.690491,635.512939 
M333.291321,687.986816 
	C333.451111,688.127747 332.900330,689.030334 333.744720,688.415222 
	C333.843964,688.342834 333.820709,688.102295 333.854126,687.939697 
	C335.500549,679.921387 337.146973,671.903076 338.793396,663.884766 
	C338.375305,663.804077 337.957245,663.723389 337.539154,663.642700 
	C336.136688,671.567261 334.734222,679.491882 333.291321,687.986816 
z"/>
</svg>